REM DIRINDEX 1\2,1\3,1\4,1\6,1\5\7,1\5\8
REM DIRNAME cjc114,folder01,folder02,folder03,folder04,folder05,folder06,folder07
TITLE ""
FILE "DB4500_5th_3B_01.mp3" MP3
  TRACK 01 AUDIO
    TITLE "0:"
    INDEX 01 00:00:00
  TRACK 02 AUDIO
    TITLE "6:cjc114_1626"
    INDEX 01 00:00:29
  TRACK 03 AUDIO
    TITLE "0:"
    INDEX 01 00:01:69
  TRACK 04 AUDIO
    TITLE "2:cjc114_1627"
    INDEX 01 00:02:42
  TRACK 05 AUDIO
    TITLE "0:"
    INDEX 01 00:03:51
  TRACK 06 AUDIO
    TITLE "3:cjc114_1628"
    INDEX 01 00:04:13
  TRACK 07 AUDIO
    TITLE "0:"
    INDEX 01 00:05:28
  TRACK 08 AUDIO
    TITLE "4:cjc114_1629"
    INDEX 01 00:05:52
  TRACK 09 AUDIO
    TITLE "0:"
    INDEX 01 00:08:56
  TRACK 10 AUDIO
    TITLE "2:cjc114_1630"
    INDEX 01 00:09:32
  TRACK 11 AUDIO
    TITLE "0:"
    INDEX 01 00:10:35
  TRACK 12 AUDIO
    TITLE "3:cjc114_1631"
    INDEX 01 00:10:59
  TRACK 13 AUDIO
    TITLE "0:"
    INDEX 01 00:12:01
  TRACK 14 AUDIO
    TITLE "4:cjc114_1632"
    INDEX 01 00:12:24
  TRACK 15 AUDIO
    TITLE "0:"
    INDEX 01 00:15:44
  TRACK 16 AUDIO
    TITLE "2:cjc114_1633"
    INDEX 01 00:16:18
  TRACK 17 AUDIO
    TITLE "0:"
    INDEX 01 00:17:49
  TRACK 18 AUDIO
    TITLE "3:cjc114_1634"
    INDEX 01 00:17:72
  TRACK 19 AUDIO
    TITLE "0:"
    INDEX 01 00:19:20
  TRACK 20 AUDIO
    TITLE "4:cjc114_1635"
    INDEX 01 00:19:44
  TRACK 21 AUDIO
    TITLE "0:"
    INDEX 01 00:23:30
  TRACK 22 AUDIO
    TITLE "2:cjc114_1636"
    INDEX 01 00:24:16
  TRACK 23 AUDIO
    TITLE "0:"
    INDEX 01 00:25:19
  TRACK 24 AUDIO
    TITLE "3:cjc114_1637"
    INDEX 01 00:25:45
  TRACK 25 AUDIO
    TITLE "0:"
    INDEX 01 00:27:16
  TRACK 26 AUDIO
    TITLE "4:cjc114_1638"
    INDEX 01 00:27:39
  TRACK 27 AUDIO
    TITLE "0:"
    INDEX 01 00:29:58
  TRACK 28 AUDIO
    TITLE "4:cjc114_1639"
    INDEX 01 00:30:24
  TRACK 29 AUDIO
    TITLE "0:"
    INDEX 01 00:33:09
  TRACK 30 AUDIO
    TITLE "2:cjc114_1640"
    INDEX 01 00:33:58
  TRACK 31 AUDIO
    TITLE "0:"
    INDEX 01 00:34:57
  TRACK 32 AUDIO
    TITLE "3:cjc114_1641"
    INDEX 01 00:35:04
  TRACK 33 AUDIO
    TITLE "0:"
    INDEX 01 00:36:17
  TRACK 34 AUDIO
    TITLE "4:cjc114_1642"
    INDEX 01 00:36:42
  TRACK 35 AUDIO
    TITLE "0:"
    INDEX 01 00:38:65
  TRACK 36 AUDIO
    TITLE "2:cjc114_1643"
    INDEX 01 00:39:41
  TRACK 37 AUDIO
    TITLE "0:"
    INDEX 01 00:40:36
  TRACK 38 AUDIO
    TITLE "3:cjc114_1644"
    INDEX 01 00:40:60
  TRACK 39 AUDIO
    TITLE "0:"
    INDEX 01 00:42:12
  TRACK 40 AUDIO
    TITLE "4:cjc114_1645"
    INDEX 01 00:42:35
  TRACK 41 AUDIO
    TITLE "0:"
    INDEX 01 00:45:71
  TRACK 42 AUDIO
    TITLE "2:cjc114_1646"
    INDEX 01 00:46:45
  TRACK 43 AUDIO
    TITLE "0:"
    INDEX 01 00:47:48
  TRACK 44 AUDIO
    TITLE "3:cjc114_1647"
    INDEX 01 00:47:70
  TRACK 45 AUDIO
    TITLE "0:"
    INDEX 01 00:49:33
  TRACK 46 AUDIO
    TITLE "4:cjc114_1648"
    INDEX 01 00:49:59
  TRACK 47 AUDIO
    TITLE "0:"
    INDEX 01 00:52:47
  TRACK 48 AUDIO
    TITLE "2:cjc114_1649"
    INDEX 01 00:53:19
  TRACK 49 AUDIO
    TITLE "0:"
    INDEX 01 00:54:25
  TRACK 50 AUDIO
    TITLE "3:cjc114_1650"
    INDEX 01 00:54:46
  TRACK 51 AUDIO
    TITLE "0:"
    INDEX 01 00:56:14
  TRACK 52 AUDIO
    TITLE "4:cjc114_1651"
    INDEX 01 00:56:37
  TRACK 53 AUDIO
    TITLE "0:"
    INDEX 01 00:59:14
  TRACK 54 AUDIO
    TITLE "2:cjc114_1652"
    INDEX 01 00:59:63
  TRACK 55 AUDIO
    TITLE "0:"
    INDEX 01 01:00:74
  TRACK 56 AUDIO
    TITLE "3:cjc114_1653"
    INDEX 01 01:01:23
  TRACK 57 AUDIO
    TITLE "0:"
    INDEX 01 01:02:54
  TRACK 58 AUDIO
    TITLE "4:cjc114_1654"
    INDEX 01 01:03:00
  TRACK 59 AUDIO
    TITLE "0:"
    INDEX 01 01:06:65
  TRACK 60 AUDIO
    TITLE "2:cjc114_1655"
    INDEX 01 01:07:39
  TRACK 61 AUDIO
    TITLE "0:"
    INDEX 01 01:08:42
  TRACK 62 AUDIO
    TITLE "3:cjc114_1656"
    INDEX 01 01:08:68
  TRACK 63 AUDIO
    TITLE "0:"
    INDEX 01 01:10:45
  TRACK 64 AUDIO
    TITLE "4:cjc114_1657"
    INDEX 01 01:10:67
  TRACK 65 AUDIO
    TITLE "0:"
    INDEX 01 01:14:29
  TRACK 66 AUDIO
    TITLE "2:cjc114_1658"
    INDEX 01 01:15:03
  TRACK 67 AUDIO
    TITLE "0:"
    INDEX 01 01:16:20
  TRACK 68 AUDIO
    TITLE "3:cjc114_1659"
    INDEX 01 01:16:46
  TRACK 69 AUDIO
    TITLE "0:"
    INDEX 01 01:18:09
  TRACK 70 AUDIO
    TITLE "4:cjc114_1660"
    INDEX 01 01:18:33
  TRACK 71 AUDIO
    TITLE "0:"
    INDEX 01 01:21:74
  TRACK 72 AUDIO
    TITLE "2:cjc114_1661"
    INDEX 01 01:22:46
  TRACK 73 AUDIO
    TITLE "0:"
    INDEX 01 01:23:50
  TRACK 74 AUDIO
    TITLE "3:cjc114_1662"
    INDEX 01 01:23:71
  TRACK 75 AUDIO
    TITLE "0:"
    INDEX 01 01:24:65
  TRACK 76 AUDIO
    TITLE "4:cjc114_1663"
    INDEX 01 01:25:13
  TRACK 77 AUDIO
    TITLE "0:"
    INDEX 01 01:28:22
  TRACK 78 AUDIO
    TITLE "2:cjc114_1664"
    INDEX 01 01:28:74
  TRACK 79 AUDIO
    TITLE "0:"
    INDEX 01 01:30:11
  TRACK 80 AUDIO
    TITLE "3:cjc114_1665"
    INDEX 01 01:30:34
  TRACK 81 AUDIO
    TITLE "0:"
    INDEX 01 01:32:00
  TRACK 82 AUDIO
    TITLE "4:cjc114_1666"
    INDEX 01 01:32:19
  TRACK 83 AUDIO
    TITLE "0:"
    INDEX 01 01:36:60
